<svg width="375" height="61" viewBox="0 0 375 61" fill="none" xmlns="http://www.w3.org/2000/svg">
<g clip-path="url(#clip0_11964_17784)">
<path d="M447 21.4845C414.778 21.4845 414.778 1.51025 382.556 1.51025C350.333 1.51025 350.333 21.4845 318.111 21.4845C285.889 21.4845 285.881 1.51025 253.659 1.51025C221.437 1.51025 221.437 21.4845 189.215 21.4845C156.992 21.4845 156.992 1.51025 124.77 1.51025C92.548 1.51025 92.548 21.4845 60.3258 21.4845C28.1035 21.4845 28.1035 1.51025 -4.11868 1.51025C-36.3409 1.51025 -36.3409 21.4845 -68.5631 21.4845C-100.785 21.4845 -100.778 1.51025 -133 1.51025V39.5157C-100.778 39.5157 -100.778 59.49 -68.5555 59.49C-36.3333 59.49 -36.3333 39.5157 -4.1111 39.5157C28.1111 39.5157 28.1111 59.49 60.3333 59.49C92.5556 59.49 92.5556 39.5157 124.778 39.5157C157 39.5157 157 59.49 189.222 59.49C221.444 59.49 221.444 39.5157 253.667 39.5157C285.889 39.5157 285.889 59.49 318.111 59.49C350.333 59.49 350.333 39.5157 382.556 39.5157C414.778 39.5157 414.778 59.49 447 59.49" fill="white"/>
<path d="M-133 1.51025C-100.778 1.51025 -100.778 21.4845 -68.5556 21.4845C-36.3333 21.4845 -36.3333 1.51025 -4.11868 1.51025C28.096 1.51025 28.1035 21.4845 60.3258 21.4845C92.548 21.4845 92.548 1.51025 124.77 1.51025C156.992 1.51025 156.992 21.4845 189.215 21.4845C221.437 21.4845 221.437 1.51025 253.659 1.51025C285.881 1.51025 285.881 21.4845 318.104 21.4845C350.326 21.4845 350.326 1.51025 382.548 1.51025C414.77 1.51025 414.77 21.4845 446.992 21.4845" stroke="#408F95" stroke-width="3" stroke-miterlimit="10"/>
<path d="M-133 39.5156C-100.778 39.5156 -100.778 59.4899 -68.5556 59.4899C-36.3333 59.4899 -36.3333 39.5156 -4.11111 39.5156C28.1111 39.5156 28.1111 59.4899 60.3333 59.4899C92.5556 59.4899 92.5556 39.5156 124.778 39.5156C157 39.5156 157 59.4899 189.222 59.4899C221.444 59.4899 221.444 39.5156 253.667 39.5156C285.889 39.5156 285.889 59.4899 318.111 59.4899C350.333 59.4899 350.333 39.5156 382.556 39.5156C414.778 39.5156 414.778 59.4899 447 59.4899" stroke="#408F95" stroke-width="3" stroke-miterlimit="10"/>
</g>
<defs>
<clipPath id="clip0_11964_17784">
<rect width="580" height="61" fill="white" transform="translate(-133)"/>
</clipPath>
</defs>
</svg>
